<svg xmlns="http://www.w3.org/2000/svg" version="1.1" xmlns:xlink="http://www.w3.org/1999/xlink" xmlns:svgjs="http://svgjs.dev/svgjs" width="2000" height="4753" viewBox="0 0 2000 4753"><g transform="matrix(1,0,0,1,-6.798327216455164,-5.796341463414137)"><svg viewBox="0 0 138 328" data-background-color="#fbf1e3" preserveAspectRatio="xMidYMid meet" height="4753" width="2000" xmlns="http://www.w3.org/2000/svg" xmlns:xlink="http://www.w3.org/1999/xlink"><g id="tight-bounds" transform="matrix(1,0,0,1,0.4690845779354049,0.39999999999997726)"><svg viewBox="0 0 137.06183084412922 327.2" height="327.2" width="137.06183084412922"><g><svg viewBox="0 0 267.2901408450704 638.0867200290511" height="327.2" width="137.06183084412922"><g transform="matrix(1,0,0,1,0,310.88672002905105)"><svg viewBox="0 0 267.2901408450704 327.2" height="327.2" width="267.2901408450704"><g id="textblocktransform"><svg viewBox="0 0 267.2901408450704 327.2" height="327.2" width="267.2901408450704" id="textblock"><g><svg viewBox="0 0 267.2901408450704 327.2" height="327.2" width="267.2901408450704"><g transform="matrix(1,0,0,1,0,0)"><svg width="267.2901408450704" viewBox="0.85 -35.5 29 35.5" height="327.2" data-palette-color="#ffa600"><path d="M29.85-35.5L29.85-31.5 17.6-31.5 17.6 0 13.1 0 13.1-31.5 0.85-31.5 0.85-35.5 29.85-35.5Z" opacity="1" transform="matrix(1,0,0,1,0,0)" fill="#ffa600" class="wordmark-text-0" data-fill-palette-color="primary" id="text-0"></path></svg></g></svg></g></svg></g></svg></g><g transform="matrix(1,0,0,1,51.05241690140845,0)"><svg viewBox="0 0 165.18530704225353 284.71072002905106" height="284.71072002905106" width="165.18530704225353"><g><svg xmlns="http://www.w3.org/2000/svg" xmlns:xlink="http://www.w3.org/1999/xlink" version="1.1" x="0" y="0" viewBox="21.679106830508616 1 56.85827385947762 98" enable-background="new 0 0 100 100" xml:space="preserve" height="284.71072002905106" width="165.18530704225353" class="icon-icon-0" data-fill-palette-color="accent" id="icon-0"><g fill="#fd4001" data-fill-palette-color="accent"><path fill-rule="evenodd" clip-rule="evenodd" d="M30.545 28.822C29.38 36.039 30.875 43.672 37.045 47.863 30.758 19.81 45.756 8.664 59.646 1 43.466 24.046 76.542 24.644 78.423 51.13 80.028 73.71 64.507 91.317 46.639 99 46.845 76.175 24.089 73.067 21.801 54.397 20.905 47.094 25.062 33.766 30.545 28.822" fill="#fd4001" data-fill-palette-color="accent"></path></g></svg></g></svg></g><g></g></svg></g><defs></defs></svg><rect width="137.06183084412922" height="327.2" fill="none" stroke="none" visibility="hidden"></rect></g></svg></g></svg>